<svg xmlns="http://www.w3.org/2000/svg" version="1.1" xmlns:xlink="http://www.w3.org/1999/xlink" xmlns:svgjs="http://svgjs.dev/svgjs" width="1000" height="128" viewBox="0 0 1000 128"><g transform="matrix(1,0,0,1,-0.6060588092800572,0.5840231618730769)"><svg viewBox="0 0 396 51" data-background-color="#ffffff" preserveAspectRatio="xMidYMid meet" height="128" width="1000" xmlns="http://www.w3.org/2000/svg" xmlns:xlink="http://www.w3.org/1999/xlink"><g id="tight-bounds" transform="matrix(1,0,0,1,0.23999928847490537,-0.23269672855880685)"><svg viewBox="0 0 395.52 51.46539345711759" height="51.46539345711759" width="395.52"><g><svg viewBox="0 0 395.52000000000004 51.4653934571176" height="51.46539345711759" width="395.52"><g><svg viewBox="0 0 395.52000000000004 51.4653934571176" height="51.4653934571176" width="395.52000000000004"><g><svg viewBox="0 0 395.52000000000004 51.4653934571176" height="51.4653934571176" width="395.52000000000004"><g><svg viewBox="0 0 395.52000000000004 51.4653934571176" height="51.4653934571176" width="395.52000000000004"><g transform="matrix(1,0,0,1,0,0)"><svg width="395.52000000000004" viewBox="1 -43.650001525878906 339.2799987792969 44.150001525878906" height="51.4653934571176" data-palette-color="#2257bf"><path d="M57.8-3.95L55.8 0.05 36.6 0.05 36.6-3.5 41.3-7.2 41.3-28.9 29.45 0.05 24.2 0.05 11.95-29.2 11.95-6 17.7-3.95 15.7 0.05 2 0.05 2-3.5 6.7-7.2 6.7-33.15 1-35.3 3-39.3 19-39.3 29.75-13.6 40.3-39.3 56.8-39.3 56.8-35.75 52.05-32.05 52.05-5.35 57.8-3.95ZM93.05-4L91.05 0 78.55 0 78.55-4.35 72.9 0.1Q71.9 0.5 70.4 0.5L70.4 0.5Q65.3 0.5 63.02-1.98 60.75-4.45 60.75-7.95L60.75-7.95Q60.75-9.95 61.9-11.88 63.05-13.8 65.25-15.45L65.25-15.45 78.55-15.45Q78.4-17.65 77.05-18.78 75.7-19.9 73.65-19.9L73.65-19.9Q70.2-19.9 63.55-17.8L63.55-17.8 62.05-21.2 68.9-26.7Q71.65-27.65 75.5-27.65L75.5-27.65Q81.7-27.65 85.15-24.93 88.6-22.2 88.6-16.95L88.6-16.95 88.6-5.75 93.05-4ZM73.45-7.75Q75.65-7.75 78.55-9.45L78.55-9.45 78.55-11.4 70.95-11.4Q70.7-10.95 70.6-10.63 70.5-10.3 70.5-9.8L70.5-9.8Q70.5-8.85 71.27-8.3 72.05-7.75 73.5-7.75L73.5-7.75 73.45-7.75ZM111.4-27.65Q113.9-27.65 117.25-27.08 120.6-26.5 122.1-25.8L122.1-25.8 122.1-15.6 118.2-15.6Q116.35-18.15 114.02-19.55 111.7-20.95 109.15-20.95L109.15-20.95Q107.65-20.95 106.75-19.43 105.85-17.9 105.85-15.1L105.85-15.1Q105.85-11.5 107.37-9.13 108.9-6.75 111.75-6.75L111.75-6.75Q115.15-6.75 121.85-9.35L121.85-9.35 123.35-5.95 116.5-0.45Q113.3 0.5 108.85 0.5L108.85 0.5Q104.95 0.5 101.87-1.23 98.8-2.95 97.07-5.98 95.35-9 95.35-12.7L95.35-12.7Q95.35-16.7 97.85-20.15 100.35-23.6 104.12-25.63 107.9-27.65 111.4-27.65L111.4-27.65ZM162.19-4.05L160.19-0.05 147.69-0.05 147.69-15.5Q147.69-17.65 147.07-18.55 146.44-19.45 144.89-19.45L144.89-19.45Q142.74-19.45 140.69-18.4L140.69-18.4 140.69-5.4 145.19-4 143.19 0 126.24 0 126.24-3.55 130.69-7.45 130.69-32.75 126.24-35.65 126.24-39.2 136.79-43.65 140.69-43.65 140.69-23.35 145.54-27.25Q146.89-27.65 148.79-27.65L148.79-27.65Q152.89-27.65 155.29-25.58 157.69-23.5 157.69-19.95L157.69-19.95 157.69-5.4 162.19-4.05ZM200.14-4.05L198.14-0.05 185.64-0.05 185.64-15.5Q185.64-17.65 185.01-18.55 184.39-19.45 182.84-19.45L182.84-19.45Q180.69-19.45 178.64-18.4L178.64-18.4 178.64-5.4 183.14-4 181.14 0 164.19 0 164.19-3.55 168.64-7.45 168.64-17.2 164.19-20.1 164.19-23.65 175.74-28.1 177.84-22.7 183.49-27.25Q184.84-27.65 186.74-27.65L186.74-27.65Q190.84-27.65 193.24-25.58 195.64-23.5 195.64-19.95L195.64-19.95 195.64-5.4 200.14-4.05ZM221.09-4L219.09 0 202.14 0 202.14-3.55 206.59-7.45 206.59-17.2 202.14-20.1 202.14-23.65 212.69-28.1 216.59-28.1 216.59-5.4 221.09-4ZM211.64-43.25Q214.14-43.25 215.76-41.7 217.39-40.15 217.39-37.85L217.39-37.85Q217.39-36.25 216.21-34.85 215.04-33.45 213.29-32.6 211.54-31.75 209.89-31.75L209.89-31.75Q207.44-31.75 205.79-33.3 204.14-34.85 204.14-37.1L204.14-37.1Q204.14-38.7 205.31-40.13 206.49-41.55 208.24-42.4 209.99-43.25 211.64-43.25L211.64-43.25ZM246.58-3.9L241.53 0.1Q239.48 0.5 236.73 0.5L236.73 0.5Q231.53 0.5 229.13-1.68 226.73-3.85 226.73-8.4L226.73-8.4 226.73-21.6 221.33-21.6 221.33-24.65 232.83-36.7 236.73-36.7 236.73-25.65 245.73-25.65 245.73-21.6 236.73-21.6 236.73-9.3Q236.73-6.25 240.63-6.25L240.63-6.25Q241.63-6.25 242.61-6.48 243.58-6.7 245.08-7.3L245.08-7.3 246.58-3.9ZM267.78-4L265.78 0 248.83 0 248.83-3.55 253.28-7.45 253.28-17.2 248.83-20.1 248.83-23.65 259.38-28.1 263.28-28.1 263.28-5.4 267.78-4ZM258.33-43.25Q260.83-43.25 262.46-41.7 264.08-40.15 264.08-37.85L264.08-37.85Q264.08-36.25 262.91-34.85 261.73-33.45 259.98-32.6 258.23-31.75 256.58-31.75L256.58-31.75Q254.13-31.75 252.48-33.3 250.83-34.85 250.83-37.1L250.83-37.1Q250.83-38.7 252.01-40.13 253.18-41.55 254.93-42.4 256.68-43.25 258.33-43.25L258.33-43.25ZM302.28-4L300.28 0 287.78 0 287.78-4.35 282.13 0.1Q281.13 0.5 279.63 0.5L279.63 0.5Q274.53 0.5 272.25-1.98 269.98-4.45 269.98-7.95L269.98-7.95Q269.98-9.95 271.13-11.88 272.28-13.8 274.48-15.45L274.48-15.45 287.78-15.45Q287.63-17.65 286.28-18.78 284.93-19.9 282.88-19.9L282.88-19.9Q279.43-19.9 272.78-17.8L272.78-17.8 271.28-21.2 278.13-26.7Q280.88-27.65 284.73-27.65L284.73-27.65Q290.93-27.65 294.38-24.93 297.83-22.2 297.83-16.95L297.83-16.95 297.83-5.75 302.28-4ZM282.68-7.75Q284.88-7.75 287.78-9.45L287.78-9.45 287.78-11.4 280.18-11.4Q279.93-10.95 279.83-10.63 279.73-10.3 279.73-9.8L279.73-9.8Q279.73-8.85 280.5-8.3 281.28-7.75 282.73-7.75L282.73-7.75 282.68-7.75ZM340.28-4.05L338.28-0.05 325.78-0.05 325.78-15.5Q325.78-17.65 325.15-18.55 324.53-19.45 322.98-19.45L322.98-19.45Q320.83-19.45 318.78-18.4L318.78-18.4 318.78-5.4 323.28-4 321.28 0 304.33 0 304.33-3.55 308.78-7.45 308.78-17.2 304.33-20.1 304.33-23.65 315.88-28.1 317.98-22.7 323.63-27.25Q324.98-27.65 326.88-27.65L326.88-27.65Q330.98-27.65 333.38-25.58 335.78-23.5 335.78-19.95L335.78-19.95 335.78-5.4 340.28-4.05Z" opacity="1" transform="matrix(1,0,0,1,0,0)" fill="#000000" class="undefined-text-0" data-fill-palette-color="primary" id="text-0"></path></svg></g></svg></g></svg></g></svg></g></svg></g><defs></defs></svg><rect width="395.52" height="51.46539345711759" fill="none" stroke="none" visibility="hidden"></rect></g></svg></g></svg>